<svg width="18px" height="17px" viewBox="0 0 18 17" version="1.1" xmlns="http://www.w3.org/2000/svg" xmlns:xlink="http://www.w3.org/1999/xlink" fill="#000000">
    <path d="M13.7652966,3.61950419 C13.3893264,3.2192465 12.9900402,2.89476575 12.5392645,2.61983147 L12.7393934,1.46860486 C12.7899114,1.06931867 12.5645235,0.719578936 12.1895248,0.594255533 L10.4641422,0.0939334203 C10.0891434,-0.00613100237 9.71414473,0.168738862 9.56453385,0.543737572 L9.08947072,1.61821574 C8.56388962,1.59392826 7.98876207,1.64444622 7.46415247,1.76879813 L6.787989,0.81867186 C6.56357267,0.493219612 6.138056,0.418414169 5.78831627,0.594255533 L4.23780347,1.44431738 C3.88709224,1.64444622 3.76274033,2.04470391 3.88709224,2.39444364 L4.31358041,3.46989331 C3.91235122,3.870151 3.53735251,4.31995515 3.23715924,4.81930577 L2.11216311,4.61917692 C1.71190542,4.54437148 1.36119419,4.79501829 1.26210127,5.14475801 L0.736520175,6.87014068 C0.636455752,7.24513939 0.812297116,7.64636858 1.18729583,7.77072048 L2.21125603,8.22052464 C2.18696855,8.79565219 2.261774,9.39506723 2.3870974,9.9468788 L1.51177658,10.5472653 C1.21158331,10.7969406 1.11249038,11.1962268 1.28638875,11.5459666 L2.13645059,13.1227098 C2.33657944,13.4462191 2.76209611,13.597773 3.08754836,13.4462191 L4.08722108,13.0469329 C4.46221979,13.4724496 4.91299545,13.8221893 5.38805858,14.1223826 L5.23844769,15.1482858 C5.16364225,15.522313 5.38805858,15.8982832 5.76305729,15.9973761 L7.46415247,16.5229572 C7.83817968,16.6230216 8.23940887,16.4238643 8.38901976,16.0731531 L8.78830595,15.1220553 C9.38869248,15.1725733 9.96382004,15.0725088 10.5642066,14.9471854 L11.1645931,15.7972473 C11.3637505,16.123671 11.8145261,16.1984765 12.1399784,16.0226351 L13.7147786,15.1725733 C14.0402309,14.9724444 14.1898418,14.5478992 14.0402309,14.197188 L13.6399732,13.2470617 C14.0907488,12.8225166 14.490035,12.3464819 14.7902283,11.7966134 L15.8413905,11.9724547 C16.2406767,12.0472602 16.5904164,11.8209009 16.7157398,11.4468736 L17.190803,9.72149098 C17.3161264,9.34649227 17.1159975,8.97149356 16.7662578,8.82091117 L15.7403546,8.3953945 C15.7403546,7.82123845 15.6655491,7.24513939 15.5402257,6.69624231 L16.4408055,6.0696253 C16.7409988,5.82092149 16.8410632,5.39443332 16.6652219,5.06995257 L15.7908725,3.49418079 C15.6150312,3.16970004 15.215745,2.99385868 14.8397748,3.16970004 L13.7652966,3.61950419 Z M10.621525,11.3448662 C8.96317581,12.2308735 6.90359741,11.630487 6.01564709,10.0003113 C5.1014663,8.37013552 5.70185284,6.31152861 7.36020205,5.4235783 C8.96317581,4.50939751 11.0499562,5.10881254 11.936935,6.74093128 C12.8520873,8.398309 12.2225558,10.4297139 10.621525,11.3448662 Z"></path>
</svg>